<svg width="20" height="20" viewBox="0 0 20 20" version="1.1" xmlns="http://www.w3.org/2000/svg" xmlns:xlink="http://www.w3.org/1999/xlink">
<title>dashboard-icon</title>
<desc>Created using Figma</desc>
<g id="Canvas" transform="translate(237 -100)">
<g id="dashboard-icon">
<use xlink:href="#path0_fill" transform="translate(-237 100)" fill="#FFFFFF"/>
</g>
</g>
<defs>
<path id="path0_fill" fill-rule="evenodd" d="M 7.22223 0L 1.66667 0C 0.746185 0 0 0.746193 0 1.66667L 0 7.22223C 0 8.14271 0.746185 8.8889 1.66667 8.8889L 7.22223 8.8889C 8.1427 8.8889 8.88889 8.14271 8.88889 7.22223L 8.88889 1.66667C 8.88889 0.746193 8.1427 0 7.22223 0ZM 1.11111 1.66666C 1.11111 1.35983 1.35985 1.1111 1.66667 1.1111L 7.22223 1.1111C 7.52905 1.1111 7.77779 1.35983 7.77779 1.66666L 7.77779 7.2222C 7.77779 7.52902 7.52905 7.77776 7.22223 7.77776L 1.66667 7.77776C 1.35985 7.77776 1.11111 7.52902 1.11111 7.2222L 1.11111 1.66666ZM 12.7778 1.1111C 12.471 1.1111 12.2222 1.35983 12.2222 1.66666L 12.2222 7.2222C 12.2222 7.52902 12.471 7.77776 12.7778 7.77776L 18.3333 7.77776C 18.6402 7.77776 18.8889 7.52902 18.8889 7.2222L 18.8889 1.66666C 18.8889 1.35983 18.6402 1.1111 18.3333 1.1111L 12.7778 1.1111ZM 18.3333 0L 12.7778 0C 11.8573 0 11.1111 0.746193 11.1111 1.66667L 11.1111 7.22223C 11.1111 8.14271 11.8573 8.8889 12.7778 8.8889L 18.3333 8.8889C 19.2538 8.8889 20 8.14271 20 7.22223L 20 1.66667C 20 0.746193 19.2538 0 18.3333 0ZM 1.66667 12.2222C 1.35985 12.2222 1.11111 12.471 1.11111 12.7778L 1.11111 18.3333C 1.11111 18.6402 1.35985 18.8889 1.66667 18.8889L 7.22223 18.8889C 7.52905 18.8889 7.77779 18.6402 7.77779 18.3333L 7.77779 12.7778C 7.77779 12.471 7.52905 12.2222 7.22223 12.2222L 1.66667 12.2222ZM 7.22223 11.1111L 1.66667 11.1111C 0.746185 11.1111 0 11.8573 0 12.7778L 0 18.3333C 0 19.2538 0.746185 20 1.66667 20L 7.22223 20C 8.1427 20 8.88889 19.2538 8.88889 18.3333L 8.88889 12.7778C 8.88889 11.8573 8.1427 11.1111 7.22223 11.1111ZM 12.7778 12.2222C 12.471 12.2222 12.2222 12.471 12.2222 12.7778L 12.2222 18.3333C 12.2222 18.6402 12.471 18.8889 12.7778 18.8889L 18.3333 18.8889C 18.6402 18.8889 18.8889 18.6402 18.8889 18.3333L 18.8889 12.7778C 18.8889 12.471 18.6402 12.2222 18.3333 12.2222L 12.7778 12.2222ZM 18.3333 11.1111L 12.7778 11.1111C 11.8573 11.1111 11.1111 11.8573 11.1111 12.7778L 11.1111 18.3333C 11.1111 19.2538 11.8573 20 12.7778 20L 18.3333 20C 19.2538 20 20 19.2538 20 18.3333L 20 12.7778C 20 11.8573 19.2538 11.1111 18.3333 11.1111Z"/>
</defs>
</svg>
