<svg width="20" height="20" viewBox="0 0 20 20" version="1.1" xmlns="http://www.w3.org/2000/svg" xmlns:xlink="http://www.w3.org/1999/xlink">
<title>invite-friends-icon</title>
<desc>Created using Figma</desc>
<g id="Canvas" transform="translate(237 -200)">
<g id="invite-friends-icon">
<use xlink:href="#path0_fill" transform="translate(-237 200)" fill="#FFFFFF"/>
</g>
</g>
<defs>
<path id="path0_fill" fill-rule="evenodd" d="M 16.627 3.522L 19.5182 3.522C 19.7841 3.522 20 3.74741 20 4.02515C 20 4.30289 19.7841 4.52829 19.5182 4.52829L 16.627 4.52829L 16.627 7.54715C 16.627 7.82489 16.4111 8.05029 16.1452 8.05029C 15.8792 8.05029 15.6633 7.82489 15.6633 7.54715L 15.6633 4.52829L 12.7722 4.52829C 12.5062 4.52829 12.2903 4.30289 12.2903 4.02515C 12.2903 3.74741 12.5062 3.522 12.7722 3.522L 15.6633 3.522L 15.6633 0.503143C 15.6633 0.225403 15.8792 0 16.1452 0C 16.4111 0 16.627 0.225403 16.627 0.503143L 16.627 3.522ZM 3.2184 7.35278C 3.40826 7.8607 3.85542 9.01241 4.19392 9.54297L 4.232 9.60359L 4.23218 9.60391C 4.50713 10.042 5.01877 10.8572 6.62706 10.8572C 8.23477 10.8572 8.74649 10.0423 9.02139 9.6046L 9.06043 9.54297C 9.39917 9.01265 9.84609 7.8607 10.036 7.35278C 10.3467 7.20837 10.5638 6.88284 10.5638 6.50548L 10.5638 5.65642C 10.5638 5.33038 10.4017 5.04309 10.1571 4.87755L 10.1571 4.59555C 10.1571 2.55302 8.83733 1.3334 6.62706 1.3334C 4.41678 1.3334 3.09699 2.55302 3.09699 4.59555L 3.09699 4.88234C 2.85413 5.04988 2.69029 5.33768 2.69029 5.65642L 2.69029 6.50548C 2.69054 6.88258 2.90761 7.20811 3.2184 7.35278ZM 3.65425 5.72884C 3.88457 5.69136 4.06093 5.4828 4.06093 5.23174L 4.06093 4.59526C 4.06093 3.11954 4.94852 2.33942 6.62729 2.33942C 8.30608 2.33942 9.19367 3.11954 9.19367 4.59526L 9.19367 5.23174C 9.19367 5.4828 9.36978 5.6911 9.60034 5.72884L 9.60034 6.43224C 9.43097 6.46016 9.28594 6.58116 9.22426 6.75249C 9.06018 7.20959 8.56677 8.50166 8.25887 8.98418L 8.21549 9.05235C 7.99216 9.40807 7.71436 9.85059 6.62706 9.85059C 5.53964 9.85059 5.26178 9.40808 5.0385 9.05244L 5.03813 9.05185L 4.99548 8.98442C 4.68807 8.50217 4.19417 7.20934 4.02985 6.75223C 3.96817 6.58066 3.82338 6.4599 3.65376 6.43198L 3.65376 5.72884L 3.65425 5.72884ZM 1.43193 11.8386L 11.8219 11.8386C 12.2809 11.8386 12.6943 12.028 12.957 12.358C 13.2106 12.677 13.3065 13.0962 13.227 13.5382C 13.1168 14.1519 12.5667 14.7197 12.2375 15.0594L 12.2374 15.0596L 12.2373 15.0597L 12.2366 15.0604L 12.1631 15.1366L 8.12875 19.3492C 7.75774 19.7364 7.26599 19.9643 6.73885 19.9947C 6.72897 19.9962 6.71898 19.9974 6.70889 19.9983C 6.69879 19.9992 6.68861 19.9997 6.67838 20L 6.58707 20C 6.56418 20 6.54152 19.9982 6.51961 19.995C 5.99124 19.9658 5.49806 19.7376 5.12584 19.3494L 1.01753 15.0604L 1.01744 15.0603C 0.688294 14.7207 0.137406 14.1522 0.0270697 13.5379C -0.0521845 13.0959 0.0439459 12.6768 0.297639 12.3575C 0.560013 12.0277 0.973435 11.8386 1.43193 11.8386ZM 12.2797 13.3527C 12.2248 13.6579 11.7752 14.1218 11.5591 14.3444L 7.44717 18.6375C 7.23781 18.8561 6.95665 18.9819 6.65549 18.9915C 6.64874 18.9917 6.64175 18.992 6.63501 18.9925L 6.62706 18.9925L 6.62079 18.9927L 6.61342 18.9922L 6.59863 18.9915C 6.29771 18.9819 6.01679 18.8561 5.80742 18.6377L 1.77284 14.4252L 1.69502 14.3447L 1.69434 14.344L 1.6942 14.3438C 1.47778 14.1206 1.02902 13.6577 0.974412 13.3532C 0.95633 13.2523 0.952958 13.1092 1.03946 13.0007C 1.118 12.9016 1.26111 12.845 1.43218 12.845L 11.8222 12.845C 11.9932 12.845 12.1366 12.9019 12.2154 13.001C 12.3014 13.1089 12.2978 13.2518 12.2797 13.3527Z"/>
</defs>
</svg>
