<svg width="20" height="20" viewBox="0 0 20 20" version="1.1" xmlns="http://www.w3.org/2000/svg" xmlns:xlink="http://www.w3.org/1999/xlink">
<title>settings-icon</title>
<desc>Created using Figma</desc>
<g id="Canvas" transform="translate(237 -250)">
<g id="settings-icon">
<use xlink:href="#path0_fill" transform="translate(-237 250)" fill="#FFFFFF"/>
</g>
</g>
<defs>
<path id="path0_fill" fill-rule="evenodd" d="M 0.218204 13.8298L 1.63254 16.1466C 2.02954 16.8085 2.87319 17.0449 3.59276 16.7376L 4.58528 16.3121C 5.30486 16.8794 6.12368 17.3286 6.99213 17.6359L 7.09139 18.6761C 7.16582 19.4326 7.81096 20 8.60497 20L 11.4088 20C 12.2029 20 12.848 19.4326 12.9224 18.6761L 13.0217 17.6359C 13.8901 17.3286 14.709 16.8794 15.4285 16.3121L 16.4211 16.7376C 17.1406 17.0449 17.9843 16.8085 18.3813 16.1466L 19.7956 13.8298C 20.1926 13.1678 19.9941 12.3404 19.349 11.9149L 18.4309 11.3239C 18.5053 10.8983 18.555 10.4492 18.555 10C 18.555 9.55084 18.5053 9.12531 18.4309 8.67612L 19.3242 8.08511C 19.9693 7.65958 20.1678 6.83215 19.7708 6.17023L 18.3565 3.85342C 17.9594 3.19148 17.1158 2.95508 16.3962 3.26241L 15.4037 3.68794C 14.6841 3.12057 13.8653 2.6714 12.9969 2.36406L 12.8976 1.32388C 12.8232 0.567383 12.178 0 11.384 0L 8.58016 0C 7.78615 0 7.14101 0.567383 7.06658 1.32388L 6.96732 2.36406C 6.09887 2.6714 5.28003 3.12057 4.56046 3.68794L 3.56795 3.26241C 2.84838 2.95508 2.00473 3.19148 1.60773 3.85342L 0.193393 6.17023C -0.178814 6.83215 -0.00512363 7.63593 0.640018 8.08511L 1.53328 8.67612C 1.45885 9.10165 1.40921 9.55084 1.40921 10C 1.40921 10.4492 1.45885 10.8747 1.53328 11.3239L 0.640018 11.9149C -0.00512363 12.3641 -0.178814 13.1678 0.218204 13.8298ZM 15 10C 15 12.7638 12.7638 15 10 15C 7.23618 15 5 12.7638 5 10C 5 7.23618 7.26131 5 10 5C 12.7387 5 15 7.23618 15 10ZM 13.995 10C 13.995 7.78894 12.2111 6.005 10 6.005C 7.78894 6.005 6.00502 7.78894 6.00502 10C 6.00502 12.2111 7.81407 13.995 10 13.995C 12.1859 13.995 13.995 12.2111 13.995 10ZM 2.64986 11.7495L 1.23552 12.6951C 0.9874 12.8369 0.937778 13.1443 1.06183 13.3571L 2.501 15.6738C 2.64986 15.9102 2.94762 16.0048 3.19574 15.8866L 4.75896 15.201L 5.0071 15.4138C 5.77629 16.0521 6.64475 16.5486 7.61246 16.8559L 7.91021 16.9504L 8.05909 18.6053C 8.0839 18.889 8.30721 19.0781 8.58016 19.0781L 11.4336 19.0781C 11.7066 19.0781 11.9299 18.8653 11.9547 18.6053L 12.1036 16.9504L 12.4014 16.8559C 13.3691 16.5486 14.2375 16.0521 15.0067 15.4138L 15.2548 15.201L 16.8181 15.8866C 17.091 15.9812 17.3639 15.9102 17.5128 15.6738L 18.8775 13.3571C 19.0264 13.1443 18.952 12.8369 18.7287 12.6951L 17.3143 11.7495L 17.3888 11.4422C 17.488 10.9693 17.5376 10.4965 17.5376 10.0001C 17.5376 9.50363 17.488 9.03082 17.3888 8.55798L 17.3143 8.25067L 18.7287 7.30505C 18.952 7.16321 19.0264 6.87952 18.8775 6.6431L 17.4632 4.32631C 17.3143 4.0899 17.0166 3.99535 16.7684 4.11356L 15.2052 4.79913L 14.9571 4.58636C 14.1879 3.94806 13.3194 3.45161 12.3517 3.14429L 12.054 3.04971L 11.9051 1.39487C 11.8803 1.11119 11.657 0.922058 11.384 0.922058L 8.58016 0.922058C 8.30721 0.922058 8.0839 1.13483 8.05909 1.39487L 7.91021 3.04971L 7.61246 3.14429C 6.64475 3.45161 5.77629 3.94806 5.0071 4.58636L 4.75896 4.79913L 3.19574 4.11356C 2.92281 4.01898 2.64986 4.0899 2.501 4.32631L 1.08664 6.6431C 0.937778 6.85587 1.01221 7.16321 1.23552 7.30505L 2.64986 8.25067L 2.57543 8.55798C 2.47617 9.03082 2.42655 9.50363 2.42655 10.0001C 2.42655 10.4965 2.47617 10.9693 2.57543 11.4422L 2.64986 11.7495Z"/>
</defs>
</svg>
