<svg width="21" height="20" viewBox="0 0 21 20" xmlns="http://www.w3.org/2000/svg" xmlns:xlink="http://www.w3.org/1999/xlink"><title>Snapchat</title><desc>Created using Figma</desc><use xlink:href="#a" transform="matrix(1 0 0 -1 .283 19.524)" fill="#FFF"/><use xlink:href="#b" transform="matrix(1 0 0 -1 0 20)" fill="#030303"/><defs><path id="a" d="M10.359 0c-.018 0-.07.002-.094 0h-.095C8.92 0 8.138.559 7.345 1.143c-.483.33-.975.682-1.6.762-.237.066-.519.09-.754.095-.527-.006-.913-.082-1.224-.095a.705.705 0 0 0-.377-.095c-.144-.011-.271.014-.282.19-.093.182-.127.343-.189.476-.058.422-.12.668-.282.667C.705 3.472.153 3.883 0 4.19c.013.027.002.07 0 .096-.006.127.072.226.188.285 2.96.454 4.289 3.525 4.332 3.62.013.038.015.042 0 0 .198.418.234.742.094 1.047-.175.446-.838.66-1.318.762a.333.333 0 0 1-.283.095c-.843.394-.916.754-.847.953.024.298.437.516.753.476.11.04.19.024.283 0 .37-.195.724-.29 1.036-.286.42-.004.604.176.659.19-.043.213-.057.425-.094.667-.064 1.398-.174 3.163.282 4.19 1.317 3 4.136 3.235 4.991 3.239-.002-.004.342 0 .377 0 .848 0 3.674-.235 4.99-3.238.457-1.027.347-2.793.284-4.19V12c-.041-.186-.053-.378-.095-.571.053-.013.224-.179.565-.19.335.007.67.102 1.036.285.11.043.23.054.283.095.154-.041.28-.066.376-.095.313-.125.508-.336.471-.572.045-.194-.112-.506-.847-.857a.331.331 0 0 1-.283-.095c-.48-.103-1.143-.316-1.318-.762-.14-.305-.105-.628.094-1.048-.015.043-.014.04 0 0 .043-.094 1.371-3.164 4.332-3.619.115-.059.194-.158.188-.285-.003-.027-.013-.07 0-.096-.153-.305-.705-.716-2.637-1.047-.155.005-.216-.204-.282-.667-.062-.132-.097-.288-.188-.476.002-.119-.085-.185-.189-.19h-.094a1.11 1.11 0 0 0-.377.095c-.355.03-.721.09-1.224.095a3.235 3.235 0 0 1-.753-.095c-.626-.08-1.117-.431-1.601-.762C12.39.559 11.61 0 10.359 0z"/><path id="b" fill-rule="evenodd" d="M5.1 16.605c1.385 3.147 4.321 3.392 5.188 3.392h.152l.263.003c.869 0 3.81-.245 5.197-3.393.466-1.06.354-2.86.264-4.305l-.004-.061-.008-.14a67.638 67.638 0 0 1-.019-.315.792.792 0 0 1 .353-.089c.262.012.567.1.905.26a.954.954 0 0 0 .402.082c.152 0 .307-.03.44-.085.388-.14.632-.424.639-.743.007-.405-.35-.754-1.062-1.04a5.117 5.117 0 0 0-.305-.104c-.401-.13-1.009-.325-1.173-.718-.086-.204-.052-.466.11-.8.053-.127 1.338-3.095 4.193-3.572a.44.44 0 0 0 .364-.46.598.598 0 0 0-.047-.2c-.214-.505-1.117-.876-2.763-1.135-.054-.074-.11-.334-.145-.497l-.001-.005a6.84 6.84 0 0 0-.12-.493c-.069-.238-.241-.369-.51-.369-.117 0-.276.02-.474.06a5.51 5.51 0 0 1-1.12.12c-.26 0-.53-.023-.802-.068-.53-.09-.981-.413-1.504-.787C12.764.606 11.917 0 10.63 0c-.058 0-.112.002-.154.004A1.286 1.286 0 0 0 10.37 0C9.082 0 8.235.607 7.487 1.143h-.001c-.522.374-.973.697-1.503.787a4.88 4.88 0 0 1-.802.068c-.47 0-.846-.074-1.12-.129a2.619 2.619 0 0 0-.474-.067.488.488 0 0 0-.51.375c-.05.175-.086.34-.12.5v.001c-.035.162-.092.427-.147.502-1.645.26-2.55.631-2.763 1.138A.604.604 0 0 0 0 4.517a.44.44 0 0 0 .364.46c2.854.476 4.14 3.445 4.202 3.593.152.313.187.575.101.779-.165.393-.771.588-1.173.718-.112.035-.218.07-.306.105-.972.389-1.107.836-1.05 1.143.08.425.592.711 1.02.711a.774.774 0 0 0 .334-.07c.366-.173.69-.26.965-.26a.83.83 0 0 1 .409.09l-.03.502-.001.016c-.09 1.444-.202 3.242.264 4.301zm10.683-4.294c.087 1.4.195 3.14-.228 4.102-1.285 2.92-4.013 3.136-4.852 3.135l-.368-.003c-.802 0-3.515-.225-4.796-3.134-.423-.961-.315-2.7-.228-4.1v-.002l.007-.105.031-.537.005-.088-.058-.066c-.025-.028-.263-.28-.798-.28-.34 0-.727.102-1.152.303a.347.347 0 0 1-.148.028c-.26 0-.56-.178-.593-.353-.029-.152.162-.402.783-.651.072-.03.167-.06.277-.095h.001c.479-.154 1.2-.387 1.444-.967.137-.328.1-.714-.112-1.149C4.912 8.144 3.545 5.025.483 4.46c.053-.124.384-.554 2.445-.877.322-.05.401-.418.493-.845.033-.152.067-.31.113-.469.016-.054.018-.059.092-.059.091 0 .23.028.391.06.293.058.693.137 1.204.137.286 0 .58-.026.875-.075.63-.107 1.144-.474 1.687-.864C8.513.946 9.266.406 10.417.406c.03 0 .058.001.111.004.05-.003.1-.004.149-.004 1.15 0 1.905.54 2.634 1.063.544.39 1.057.756 1.687.863.295.05.59.075.875.075.511 0 .912-.071 1.204-.13.16-.031.3-.05.415-.05.051 0 .054.003.068.05.046.16.08.314.113.466.092.426.17.792.493.843 2.061.322 2.393.751 2.457.926-3.075.513-4.44 3.632-4.527 3.837-.212.435-.249.821-.112 1.15.243.58.965.811 1.443.966h.002c.11.035.205.066.277.095.735.294.788.55.787.621-.003.126-.15.265-.37.344a.72.72 0 0 1-.274.052.52.52 0 0 1-.218-.04c-.396-.189-.76-.29-1.1-.303-.49.02-.71.253-.732.279l-.059.066.005.088c.01.206.024.42.038.643v.001z"/></defs></svg>